# Wavefront OBJ exported by MilkShape 3D

mtllib arm.mtl

v -0.441293 -0.069296 0.048987
v -0.265243 -0.052997 0.048987
v -0.413124 -0.092690 -0.039414
v -0.288638 -0.081165 -0.039414
v -0.345119 -0.149171 -0.076032
v -0.277112 -0.205652 -0.039414
v -0.401599 -0.217177 -0.039414
v -0.248944 -0.229048 0.048987
v -0.424995 -0.245346 0.048987
v -0.277113 -0.205652 0.137389
v -0.401599 -0.217177 0.137389
v -0.345119 -0.149171 0.174006
v -0.413124 -0.092690 0.137389
v -0.288638 -0.081166 0.137389
v -0.259132 -0.119014 0.048987
v -0.119348 0.049293 0.048987
v -0.331256 -0.059113 0.095867
v -0.191471 0.109194 0.095867
v -0.331256 -0.059113 0.095867
v -0.191471 0.109194 0.095867
v -0.331256 -0.059113 0.002108
v -0.191472 0.109194 0.002108
v -0.331256 -0.059113 0.002108
v -0.191472 0.109194 0.002108
v -0.259132 -0.119014 0.048987
v -0.119348 0.049293 0.048987
v 0.232419 0.115159 0.127143
v 0.107105 0.177026 0.127143
v -0.032098 -0.104930 0.220893
v -0.080392 0.176080 0.127143
v -0.205075 0.112949 0.127143
v 0.061651 -0.104457 0.220893
v -0.080392 0.176080 -0.029107
v 0.107105 0.177026 -0.029107
v -0.032098 -0.104930 -0.122857
v 0.232419 0.115159 -0.029107
v 0.061651 -0.104457 -0.122857
v -0.205075 0.112949 -0.029107
v 0.232419 0.115159 0.127143
v 0.232419 0.115159 -0.029107
v 0.107105 0.177026 0.127143
v 0.107105 0.177026 -0.029107
v -0.080392 0.176080 0.127143
v -0.080392 0.176080 -0.029107
v -0.205075 0.112949 0.127143
v -0.205075 0.112949 -0.029107
v 0.232419 0.115159 -0.029107
v 0.232419 0.115159 0.127143
v 0.061651 -0.104457 -0.122857
v 0.061651 -0.104457 0.220893
v -0.032098 -0.104930 -0.122857
v 0.061651 -0.104457 -0.122857
v -0.032098 -0.104930 0.220893
v 0.061651 -0.104457 0.220893
v -0.032098 -0.104930 -0.122857
v -0.032098 -0.104930 0.220893
v -0.205075 0.112949 -0.029107
v -0.205075 0.112949 0.127143
v 0.276967 -0.228522 0.048987
v 0.291486 -0.052316 0.048987
v 0.304898 -0.204844 -0.039414
v 0.315165 -0.080247 -0.039414
v 0.372329 -0.147679 -0.076032
v 0.439761 -0.090514 -0.039414
v 0.429494 -0.215111 -0.039414
v 0.467693 -0.066836 0.048987
v 0.453173 -0.243042 0.048987
v 0.439761 -0.090514 0.137389
v 0.429494 -0.215111 0.137389
v 0.372329 -0.147679 0.174006
v 0.304898 -0.204844 0.137389
v 0.315165 -0.080247 0.137389
v 0.357562 -0.057762 0.095867
v 0.216084 0.109125 0.095867
v 0.286047 -0.118389 0.048987
v 0.144570 0.048498 0.048987
v 0.286047 -0.118389 0.048987
v 0.144570 0.048498 0.048987
v 0.357562 -0.057762 0.002108
v 0.216084 0.109125 0.002108
v 0.357562 -0.057762 0.002108
v 0.216084 0.109125 0.002108
v 0.357562 -0.057762 0.095867
v 0.216084 0.109125 0.095867
# 84 vertices

vt 0.775264 -0.950859
vt 0.807225 -0.950859
vt 0.775264 -0.931635
vt 0.807225 -0.931635
vt 0.823206 -0.912411
vt 0.839187 -0.931635
vt 0.871149 -0.931635
vt 0.839187 -0.950859
vt 0.871149 -0.950859
vt 0.839187 -0.970083
vt 0.871149 -0.970083
vt 0.823206 -0.989307
vt 0.775264 -0.970083
vt 0.807225 -0.970083
vt 0.769214 -0.759568
vt 0.769214 -0.871098
vt 0.813826 -0.759568
vt 0.813826 -0.871098
vt 0.771174 -0.759568
vt 0.771174 -0.871098
vt 0.868393 -0.507739
vt 0.836337 -0.572668
vt 0.982427 -0.647441
vt 0.836828 -0.672464
vt 0.869538 -0.737066
vt 0.982182 -0.596219
vt 0.826148 -0.505847
vt 0.759598 -0.505847
vt 0.827111 -0.572668
vt 0.760560 -0.572668
vt 0.827602 -0.672464
vt 0.761051 -0.672464
vt 0.827293 -0.741606
vt 0.760742 -0.741606
vt 0.837615 -0.880479
vt 0.837616 -0.777880
vt 0.972184 -0.942038
vt 0.972184 -0.716320
vt 0.995201 -0.716336
vt 0.995201 -0.942759
vt 0.839066 -0.880479
vt 0.839066 -0.777880
# 42 texture coordinates

vn -0.769278 0.638914 -0.000004
vn 0.632905 0.762054 -0.136769
vn -0.439925 0.596027 -0.671727
vn 0.428883 0.516404 -0.741206
vn -0.000003 0.000001 -1.000000
vn 0.666659 -0.323019 -0.671733
vn -0.491363 -0.591622 -0.639176
vn 0.769281 -0.638910 -0.000000
vn -0.632908 -0.762050 0.136775
vn 0.439919 -0.596022 0.671735
vn -0.428883 -0.516396 0.741211
vn -0.000001 0.000001 1.000000
vn -0.666656 0.323025 0.671733
vn 0.491363 0.591626 0.639172
vn 0.344047 -0.285742 0.894418
vn 0.344042 -0.285737 -0.894421
vn 0.062537 0.326567 0.943103
vn 0.062601 0.286931 0.955904
vn -0.006049 0.316063 0.948719
vn -0.074475 0.304051 0.949740
vn -0.146947 0.290219 0.945611
vn -0.001987 0.393912 0.919146
vn -0.074475 0.304051 -0.949740
vn 0.062601 0.286931 -0.955904
vn -0.006049 0.316063 -0.948719
vn 0.062537 0.326567 -0.943103
vn -0.001987 0.393912 -0.919146
vn -0.146947 0.290219 -0.945611
vn 0.442686 0.896677 0.000000
vn 0.300578 0.953757 0.000000
vn 0.147705 0.989031 0.000000
vn -0.157683 0.987490 0.000000
vn -0.310198 0.950672 0.000000
vn -0.451727 0.892156 0.000000
vn 0.789430 -0.613841 0.000000
vn 0.005045 -0.999987 0.000000
vn -0.783189 -0.621784 0.000000
vn -0.762788 -0.646649 -0.000001
vn -0.640571 0.755620 -0.136776
vn -0.663362 -0.329741 -0.671730
vn -0.434080 0.512041 -0.741207
vn 0.433879 0.600438 -0.671732
vn 0.497311 -0.586632 -0.639175
vn 0.762788 0.646649 -0.000004
vn 0.640569 -0.755622 0.136773
vn 0.663358 0.329738 0.671736
vn 0.434076 -0.512039 0.741211
vn -0.433880 -0.600437 0.671731
vn -0.497313 0.586631 0.639175
vn -0.341143 -0.289203 0.894418
vn -0.341138 -0.289197 -0.894422
# 51 normals

g default
usemtl Tex_0024_0.dds
s 1
f 1/1/1 2/2/2 3/3/3
f 2/2/2 4/4/4 3/3/3
f 3/3/3 4/4/4 5/5/5
f 4/4/4 6/6/6 5/5/5
f 5/5/5 6/6/6 7/7/7
f 6/6/6 8/8/8 7/7/7
f 7/7/7 8/8/8 9/9/9
f 8/8/8 10/10/10 9/9/9
f 9/9/9 10/10/10 11/11/11
f 10/10/10 12/12/12 11/11/11
f 11/11/11 12/12/12 13/13/13
f 12/12/12 14/14/14 13/13/13
f 13/13/13 14/14/14 1/1/1
f 14/14/14 2/2/2 1/1/1
f 11/11/11 13/13/13 9/9/9
f 13/13/13 1/1/1 9/9/9
f 9/9/9 1/1/1 7/7/7
f 1/1/1 3/3/3 7/7/7
f 7/7/7 3/3/3 5/5/5
f 12/12/12 10/10/10 14/14/14
f 10/10/10 8/8/8 14/14/14
f 14/14/14 8/8/8 2/2/2
f 8/8/8 6/6/6 2/2/2
f 2/2/2 6/6/6 4/4/4
f 15/15/15 16/16/15 17/17/15
f 16/16/15 18/18/15 17/17/15
f 19/17/1 20/18/1 21/19/1
f 20/18/1 22/20/1 21/19/1
f 23/17/16 24/18/16 25/15/16
f 24/18/16 26/16/16 25/15/16
f 27/21/17 28/22/18 29/23/19
f 28/22/18 30/24/20 29/23/19
f 29/23/19 30/24/20 31/25/21
f 27/21/17 29/23/19 32/26/22
f 33/24/23 34/22/24 35/23/25
f 34/22/24 36/21/26 35/23/25
f 35/23/25 36/21/26 37/26/27
f 33/24/23 35/23/25 38/25/28
f 39/27/29 40/28/29 41/29/30
f 40/28/29 42/30/31 41/29/30
f 41/29/30 42/30/31 43/31/32
f 42/30/31 44/32/33 43/31/32
f 43/31/32 44/32/33 45/33/34
f 44/32/33 46/34/34 45/33/34
f 47/35/35 48/36/35 49/37/35
f 48/36/35 50/38/35 49/37/35
f 51/38/36 52/39/36 53/37/36
f 52/39/36 54/40/36 53/37/36
f 55/37/37 56/38/37 57/41/37
f 56/38/37 58/42/37 57/41/37
f 59/1/38 60/2/39 61/3/40
f 60/2/39 62/4/41 61/3/40
f 61/3/40 62/4/41 63/5/5
f 62/4/41 64/6/42 63/5/5
f 63/5/5 64/6/42 65/7/43
f 64/6/42 66/8/44 65/7/43
f 65/7/43 66/8/44 67/9/45
f 66/8/44 68/10/46 67/9/45
f 67/9/45 68/10/46 69/11/47
f 68/10/46 70/12/12 69/11/47
f 69/11/47 70/12/12 71/13/48
f 70/12/12 72/14/49 71/13/48
f 71/13/48 72/14/49 59/1/38
f 72/14/49 60/2/39 59/1/38
f 69/11/47 71/13/48 67/9/45
f 71/13/48 59/1/38 67/9/45
f 67/9/45 59/1/38 65/7/43
f 59/1/38 61/3/40 65/7/43
f 65/7/43 61/3/40 63/5/5
f 70/12/12 68/10/46 72/14/49
f 68/10/46 66/8/44 72/14/49
f 72/14/49 66/8/44 60/2/39
f 66/8/44 64/6/42 60/2/39
f 60/2/39 64/6/42 62/4/41
f 73/15/50 74/16/50 75/17/50
f 74/16/50 76/18/50 75/17/50
f 77/17/51 78/18/51 79/15/51
f 78/18/51 80/16/51 79/15/51
f 81/17/44 82/18/44 83/15/44
f 82/18/44 84/16/44 83/15/44
# 80 triangles in group

# 80 triangles total

