# Wavefront OBJ exported by MilkShape 3D

mtllib foot.mtl

v 0.095377 0.458245 0.101130
v -0.132481 0.315780 0.109188
v 0.060444 0.411630 0.099907
v -0.132481 0.315780 0.109188
v 0.095377 0.458245 0.101130
v -0.169927 0.345968 0.114483
v 0.164627 0.457335 0.025699
v 0.060444 0.411630 0.099907
v 0.159145 0.423543 0.026938
v 0.060444 0.411630 0.099907
v 0.164627 0.457335 0.025699
v 0.095377 0.458245 0.101130
v 0.159145 0.423543 0.026938
v 0.128099 0.457611 -0.044621
v 0.164627 0.457335 0.025699
v 0.111612 0.402309 -0.038943
v 0.060444 0.411630 0.099907
v -0.117584 0.317232 -0.027406
v 0.060444 0.411630 0.099907
v -0.132481 0.315780 0.109188
v -0.117584 0.317232 -0.027406
v -0.170935 0.522797 -0.027637
v -0.181973 0.521644 0.117764
v 0.123756 0.541694 0.100843
v 0.159145 0.423543 0.026938
v 0.060444 0.411630 0.099907
v 0.111612 0.402309 -0.038943
v -0.208882 0.201538 -0.023630
v 0.059305 0.089990 -0.114465
v -0.108947 0.165747 -0.057882
v -0.219626 0.200413 0.118075
v -0.123207 0.163401 0.134079
v 0.035845 0.088686 0.174243
v -0.208882 0.201538 -0.023630
v -0.108947 0.165747 -0.057882
v -0.219626 0.200413 0.118075
v -0.123207 0.163401 0.134079
v 0.100820 0.035702 -0.134540
v 0.078620 0.033016 0.188948
v -0.254906 0.198001 -0.032316
v -0.266104 0.197237 0.130813
v -0.202042 0.309617 -0.033916
v -0.212927 0.308469 0.128469
v 0.215821 0.072253 -0.118023
v 0.197189 0.069974 0.161229
v 0.095377 0.458245 0.101130
v 0.123756 0.541694 0.100843
v -0.169927 0.345968 0.114483
v -0.181973 0.521644 0.117764
v 0.185472 0.527421 0.025236
v 0.123756 0.541694 0.100843
v 0.164627 0.457335 0.025699
v 0.095377 0.458245 0.101130
v 0.185472 0.527421 0.025236
v 0.164627 0.457335 0.025699
v 0.120002 0.544891 -0.043428
v 0.128099 0.457611 -0.044621
v 0.185472 0.527421 0.025236
v 0.120002 0.544891 -0.043428
v 0.123756 0.541694 0.100843
v -0.170935 0.522797 -0.027637
v -0.045993 0.453018 -0.034362
v -0.211525 0.307165 0.121034
v -0.049186 0.451887 0.104964
v -0.211525 0.307165 0.121034
v -0.045993 0.453018 -0.034362
v -0.208335 0.308296 -0.018292
v -0.157483 0.153000 -0.027252
v -0.298789 0.281271 0.008333
v -0.192129 0.316830 -0.022159
v -0.298789 0.281271 0.008333
v -0.157483 0.153000 -0.027252
v -0.278578 0.189671 0.005397
v -0.281128 0.188850 0.109140
v -0.195656 0.315703 0.120794
v -0.301338 0.280450 0.112076
v -0.195656 0.315703 0.120794
v -0.281128 0.188850 0.109140
v -0.160982 0.151872 0.115176
v -0.278578 0.189671 0.005397
v -0.301338 0.280450 0.112076
v -0.298789 0.281271 0.008333
v -0.301338 0.280450 0.112076
v -0.278578 0.189671 0.005397
v -0.281128 0.188850 0.109140
v -0.298789 0.281271 0.008333
v -0.195656 0.315703 0.120794
v -0.192129 0.316830 -0.022159
v -0.195656 0.315703 0.120794
v -0.298789 0.281271 0.008333
v -0.301338 0.280450 0.112076
v -0.278578 0.189671 0.005397
v -0.160982 0.151872 0.115176
v -0.281128 0.188850 0.109140
v -0.160982 0.151872 0.115176
v -0.278578 0.189671 0.005397
v -0.157483 0.153000 -0.027252
v -0.211525 0.307165 0.121034
v -0.054368 0.248872 0.136907
v -0.175755 0.311450 0.150396
v -0.054368 0.248872 0.136907
v -0.211525 0.307165 0.121034
v -0.019200 0.195831 0.099565
v -0.049186 0.451887 0.104964
v -0.175755 0.311450 0.150396
v -0.052016 0.415384 0.138092
v -0.175755 0.311450 0.150396
v -0.049186 0.451887 0.104964
v -0.211525 0.307165 0.121034
v 0.004103 0.407979 0.098901
v -0.052016 0.415384 0.138092
v -0.016216 0.391004 0.134061
v -0.052016 0.415384 0.138092
v 0.004103 0.407979 0.098901
v -0.049186 0.451887 0.104964
v 0.007294 0.409110 -0.040424
v -0.049186 0.451887 0.104964
v 0.004103 0.407979 0.098901
v -0.049186 0.451887 0.104964
v 0.007294 0.409110 -0.040424
v -0.045993 0.453018 -0.034362
v -0.016025 0.196936 -0.039759
v 0.004103 0.407979 0.098901
v -0.019200 0.195831 0.099565
v 0.004103 0.407979 0.098901
v -0.016025 0.196936 -0.039759
v 0.007294 0.409110 -0.040424
v -0.209106 0.308442 0.131598
v -0.250043 0.258921 0.162986
v -0.211416 0.284927 0.158771
v -0.250043 0.258921 0.162986
v -0.209106 0.308442 0.131598
v -0.274328 0.271120 0.138548
v -0.274328 0.271120 0.138548
v -0.235870 0.198512 0.161010
v -0.250043 0.258921 0.162986
v -0.235870 0.198512 0.161010
v -0.274328 0.271120 0.138548
v -0.262039 0.197184 0.136658
v -0.262039 0.197184 0.136658
v 0.085284 0.033134 0.177113
v -0.235870 0.198512 0.161010
v -0.211416 0.284927 0.158771
v 0.202265 0.070148 0.143373
v -0.209106 0.308442 0.131598
v -0.271729 0.272145 -0.024682
v -0.205678 0.286401 -0.057316
v -0.244733 0.260648 -0.053551
v -0.205678 0.286401 -0.057316
v -0.271729 0.272145 -0.024682
v -0.206530 0.309587 -0.031131
v -0.259189 0.197946 -0.026830
v -0.244733 0.260648 -0.053551
v -0.230790 0.201006 -0.055725
v -0.244733 0.260648 -0.053551
v -0.259189 0.197946 -0.026830
v -0.271729 0.272145 -0.024682
v -0.230790 0.201006 -0.055725
v 0.090930 0.035815 -0.147086
v -0.259189 0.197946 -0.026830
v -0.206530 0.309587 -0.031131
v 0.206607 0.072421 -0.136466
v -0.205678 0.286401 -0.057316
v -0.016025 0.196936 -0.039759
v -0.049418 0.250498 -0.067372
v 0.007294 0.409110 -0.040424
v -0.011026 0.392593 -0.070236
v -0.379275 -0.099237 0.148070
v -0.383291 -0.100369 0.311293
v -0.555372 -0.099532 0.166824
v -0.559415 -0.100836 0.330091
v -0.379437 0.148331 0.150208
v -0.555528 0.148036 0.168963
v -0.383545 0.146936 0.313556
v -0.559570 0.146732 0.332230
v -0.383291 -0.100369 0.311293
v -0.383545 0.146936 0.313556
v -0.559415 -0.100836 0.330091
v -0.559570 0.146732 0.332230
v -0.379437 0.148331 0.150208
v -0.379275 -0.099237 0.148070
v -0.555528 0.148036 0.168963
v -0.555372 -0.099532 0.166824
v -0.370937 -0.096391 -0.186637
v -0.374979 -0.097868 -0.023375
v -0.547035 -0.096857 -0.167885
v -0.551077 -0.098161 -0.004619
v -0.371101 0.151005 -0.184390
v -0.547190 0.150711 -0.165748
v -0.375140 0.149701 -0.021236
v -0.551233 0.149407 -0.002481
v -0.374979 -0.097868 -0.023375
v -0.375140 0.149701 -0.021236
v -0.551077 -0.098161 -0.004619
v -0.551233 0.149407 -0.002481
v -0.371101 0.151005 -0.184390
v -0.370937 -0.096391 -0.186637
v -0.547190 0.150711 -0.165748
v -0.547035 -0.096857 -0.167885
v -0.054368 0.248872 0.136907
v -0.019200 0.195831 0.099565
v -0.016216 0.391004 0.134061
v 0.004103 0.407979 0.098901
v -0.047071 0.417051 -0.066226
v -0.011026 0.392593 -0.070236
v -0.170671 0.313020 -0.053922
v -0.049418 0.250498 -0.067372
v -0.045993 0.453018 -0.034362
v 0.007294 0.409110 -0.040424
v -0.047071 0.417051 -0.066226
v -0.011026 0.392593 -0.070236
v -0.175755 0.311450 0.150396
v -0.054368 0.248872 0.136907
v -0.052016 0.415384 0.138092
v -0.016216 0.391004 0.134061
v -0.170671 0.313020 -0.053922
v -0.049418 0.250498 -0.067372
v -0.208335 0.308296 -0.018292
v -0.016025 0.196936 -0.039759
v -0.047071 0.417051 -0.066226
v -0.170671 0.313020 -0.053922
v -0.045993 0.453018 -0.034362
v -0.208335 0.308296 -0.018292
v 0.085284 0.033134 0.177113
v 0.202265 0.070148 0.143373
v -0.235870 0.198512 0.161010
v -0.211416 0.284927 0.158771
v -0.250043 0.258921 0.162986
v -0.244733 0.260648 -0.053551
v -0.205678 0.286401 -0.057316
v -0.230790 0.201006 -0.055725
v 0.206607 0.072421 -0.136466
v 0.090930 0.035815 -0.147086
v -0.209106 0.308442 0.131598
v -0.206530 0.309587 -0.031131
v -0.274328 0.271120 0.138548
v -0.271729 0.272145 -0.024682
v -0.262039 0.197184 0.136658
v -0.259189 0.197946 -0.026830
v -0.370937 -0.096391 -0.186637
v -0.371101 0.151005 -0.184390
v 0.207537 -0.096116 -0.138272
v 0.206607 0.072421 -0.136466
v 0.407448 -0.096906 -0.018069
v 0.407337 0.074171 -0.016592
v 0.202265 0.070148 0.143373
v 0.203672 -0.098381 0.145511
v -0.383545 0.146936 0.313556
v -0.383291 -0.100369 0.311293
v -0.547190 0.150711 -0.165748
v -0.607352 0.149955 -0.077112
v -0.551233 0.149407 -0.002481
v -0.547036 -0.096858 -0.167885
v -0.551078 -0.098162 -0.004619
v -0.607198 -0.097613 -0.079250
v -0.555528 0.148036 0.168963
v -0.615648 0.147294 0.255972
v -0.559570 0.146732 0.332230
v -0.555373 -0.099532 0.166825
v -0.559416 -0.100837 0.330091
v -0.615493 -0.100274 0.253836
v -0.547190 0.150711 -0.165748
v -0.547036 -0.096858 -0.167885
v -0.607352 0.149955 -0.077112
v -0.607198 -0.097613 -0.079250
v -0.551233 0.149407 -0.002481
v -0.551078 -0.098162 -0.004619
v -0.555528 0.148036 0.168963
v -0.555373 -0.099532 0.166825
v -0.615648 0.147294 0.255972
v -0.615493 -0.100274 0.253836
v -0.559570 0.146732 0.332230
v -0.559416 -0.100837 0.330091
v -0.355884 0.147041 -0.163414
v -0.119147 0.163418 0.132622
v -0.114710 0.165760 -0.059817
v -0.119147 0.163418 0.132622
v -0.355884 0.147041 -0.163414
v -0.367146 0.143407 0.291371
v 0.050468 0.090083 -0.124919
v -0.355884 0.147041 -0.163414
v -0.114710 0.165760 -0.059817
v 0.041787 0.088782 0.164611
v -0.119147 0.163418 0.132622
v -0.367146 0.143407 0.291371
v -0.370938 -0.096391 -0.186636
v -0.383291 -0.100369 0.311293
v -0.371103 0.151005 -0.184390
v -0.383545 0.146936 0.313556
v -0.383291 -0.100369 0.311293
v -0.370938 -0.096391 -0.186636
v 0.203672 -0.098381 0.145511
v 0.207537 -0.096116 -0.138272
v 0.407448 -0.096906 -0.018069
v -0.371103 0.151005 -0.184390
v -0.383545 0.146936 0.313556
v 0.206607 0.072421 -0.136465
v 0.202264 0.070148 0.143374
v 0.407337 0.074171 -0.016592
# 299 vertices

vt 0.150469 0.846103
vt 0.497880 0.679304
vt 0.152987 0.798091
vt 0.505167 0.724866
vt 0.047498 0.877181
vt 0.047523 0.835349
vt 0.045788 0.835362
vt 0.171481 0.838430
vt 0.045553 0.874883
vt 0.012234 0.714342
vt 0.305753 0.712040
vt 0.019142 0.293629
vt 0.308157 0.296716
vt 0.018456 0.708523
vt 0.307275 0.710952
vt 0.306790 0.300946
vt 0.151422 0.789676
vt 0.970933 0.448301
vt 0.667348 0.187366
vt 0.903181 0.295857
vt 0.668802 0.189537
vt 0.706166 0.677669
vt 0.667971 0.571864
vt 0.911372 0.677415
vt 0.940405 0.571864
vt 0.681016 0.026605
vt 0.254750 0.026790
vt 0.573044 0.406824
vt 0.348245 0.407134
vt 0.586216 0.420341
vt 0.333487 0.420288
vt 0.691477 0.011826
vt 0.245264 0.011546
vt 0.150537 0.973776
vt 0.504485 0.973868
vt 0.047499 0.974068
vt 0.046223 0.975451
vt 0.171983 0.975303
vt 0.161651 0.217083
vt 0.018547 0.298518
vt 0.087535 0.952786
vt 0.364156 0.793591
vt 0.088132 0.792850
vt 0.363559 0.953527
vt 0.628970 0.641707
vt 0.669492 0.956142
vt 0.628970 0.992071
vt 0.671907 0.741024
vt 0.939261 0.741023
vt 0.975514 0.992071
vt 0.939261 0.956142
vt 0.974363 0.641707
vt 0.349236 0.825260
vt 0.176061 0.698120
vt 0.316391 0.826720
vt 0.149785 0.649947
vt 0.195755 0.996088
vt 0.196484 0.963973
vt 0.152203 0.951482
vt 0.175560 0.939803
vt 0.150744 0.950752
vt 0.573942 0.735282
vt 0.358425 0.974862
vt 0.358489 0.735237
vt 0.573878 0.974908
vt 0.547696 0.616466
vt 0.607935 0.571479
vt 0.556638 0.594606
vt 0.632775 0.587377
vt 0.607842 0.514368
vt 0.631854 0.507578
vt 0.341210 0.291236
vt 0.250382 0.291176
vt 0.632585 0.592845
vt 0.557214 0.592707
vt 0.606782 0.576599
vt 0.551958 0.618510
vt 0.634740 0.507195
vt 0.612042 0.519380
vt 0.339154 0.288809
vt 0.241850 0.284449
vt 0.152767 0.651084
vt 0.173114 0.699539
vt 0.175746 0.941084
vt 0.987894 0.642983
vt 0.739510 0.642983
vt 0.987894 0.468596
vt 0.739510 0.468596
vt 0.744536 0.645193
vt 0.743674 0.467334
vt 0.988904 0.644331
vt 0.988904 0.464748
vt 0.730469 0.117188
vt 0.730469 0.324219
vt 0.859375 0.117188
vt 0.859375 0.324219
vt 0.729710 0.118706
vt 0.859248 0.118417
vt 0.858763 0.322621
vt 0.193119 0.962352
vt 0.311287 0.823325
vt 0.194337 0.993635
vt 0.546702 0.619943
vt 0.627807 0.580421
vt 0.632351 0.510062
vt 0.754589 0.118102
vt 0.754554 0.324637
vt 0.269302 0.116707
vt 0.269736 0.249537
vt 0.102090 0.117078
vt 0.102090 0.249896
vt 0.863702 0.397268
vt 0.863702 0.403150
vt 0.973176 0.322993
vt 0.973178 0.118595
vt 0.972656 0.324219
vt 0.972656 0.117188
vt 0.522574 0.598678
vt 0.172231 0.418995
vt 0.381693 0.418995
vt 0.027663 0.598678
vt 0.433734 0.299654
vt 0.116477 0.300765
vt 0.033900 0.789793
vt 0.485460 0.789793
vt 0.034360 0.954273
vt 0.483154 0.954273
vt 0.446279 0.040367
vt 0.969980 0.040129
vt 0.570981 0.478724
vt 0.863467 0.478335
vt 0.717328 0.630002
vt 0.533271 0.614289
vt 0.007248 0.614828
vt 0.426649 0.170047
vt 0.127629 0.171219
vt 0.277185 0.018380
# 137 texture coordinates

vn 0.096480 -0.098288 0.990470
vn 0.081190 -0.073634 0.993975
vn 0.598386 -0.067804 0.798333
vn 0.637744 -0.493439 0.591439
vn 0.875899 -0.158801 -0.455613
vn 0.350036 -0.917149 0.190561
vn 0.446106 -0.894123 0.039148
vn -0.065277 0.997863 0.002957
vn 0.225443 -0.962992 0.147724
vn 0.344447 0.065510 0.936517
vn -0.153687 -0.701342 -0.696060
vn -0.347216 -0.937177 -0.033766
vn -0.349944 -0.936090 -0.035696
vn -0.352667 -0.934992 -0.037625
vn -0.423489 -0.905162 -0.036579
vn -0.424363 -0.904815 -0.035003
vn -0.425236 -0.904465 -0.033426
vn 0.499545 0.865382 0.039604
vn 0.056992 -0.015948 0.998247
vn 0.056223 -0.014790 0.998309
vn 0.736352 -0.214767 0.641608
vn 0.725103 -0.227631 0.649931
vn 0.713592 -0.240412 0.658019
vn 0.681157 -0.207229 -0.702197
vn 0.801660 -0.060916 -0.594668
vn 0.884091 0.088290 -0.458898
vn 0.242903 0.969932 0.015173
vn 0.085339 0.996154 0.019854
vn -0.074404 0.996939 0.024028
vn -0.665923 0.745964 -0.009206
vn -0.266616 -0.026432 -0.963440
vn -0.268198 -0.028312 -0.962948
vn -0.066657 -0.046653 0.996685
vn -0.064817 -0.047898 0.996747
vn -0.976363 -0.214605 -0.025688
vn -0.316357 0.948640 -0.000326
vn -0.293448 -0.955861 -0.014777
vn -0.341526 -0.776596 0.529395
vn -0.318329 -0.677720 0.662844
vn -0.454918 0.617560 0.641614
vn -0.526539 0.651308 0.546402
vn 0.497729 0.632802 0.593151
vn 0.526100 0.548795 0.649648
vn 0.637179 0.770434 0.020848
vn 0.993793 -0.109093 0.021782
vn -0.412433 0.705919 0.575828
vn -0.319891 0.681578 0.658120
vn -0.742668 -0.195196 0.640580
vn -0.671874 -0.130311 0.729112
vn -0.418156 -0.764221 0.491032
vn 0.378263 0.683832 0.623932
vn -0.455705 0.594192 -0.662774
vn -0.441324 0.664651 -0.602887
vn -0.699056 -0.137848 -0.701654
vn -0.747145 -0.107282 -0.655946
vn -0.498699 -0.661432 -0.560185
vn 0.255652 0.727914 -0.636226
vn 0.571527 -0.065377 -0.817975
vn 0.754841 -0.161905 -0.635611
vn 0.880653 -0.246099 -0.404828
vn 0.000939 -0.999976 -0.006912
vn 0.001804 -0.999967 -0.007942
vn -0.000768 0.999963 0.008520
vn 0.106148 -0.008989 0.994310
vn -0.105919 0.008518 -0.994338
vn 0.001687 -0.999958 -0.009005
vn 0.607022 -0.147304 0.780914
vn 0.761281 -0.124126 0.636431
vn 0.881124 -0.095336 0.463175
vn 0.413526 0.596793 -0.687630
vn 0.403848 0.639621 -0.654058
vn 0.392937 0.680495 -0.618488
vn -0.430203 -0.716068 -0.549702
vn -0.430375 -0.665303 -0.610040
vn -0.427871 -0.610402 -0.666586
vn -0.539464 0.567356 -0.622162
vn -0.564588 0.584258 -0.582995
vn -0.588328 0.599729 -0.542398
vn 0.146195 0.373113 0.916195
vn 0.096959 0.196896 0.975618
vn 0.102696 0.128989 0.986314
vn 0.078384 0.003649 0.996917
vn 0.112532 -0.006100 0.993629
vn -0.103781 0.011990 -0.994528
vn -0.138100 0.022163 -0.990170
vn -0.109722 0.155077 -0.981790
vn -0.111882 0.226913 -0.967467
vn -0.046846 0.412032 -0.909964
vn -0.496804 0.867861 -0.001758
vn -0.783477 0.621365 -0.008295
vn -0.977040 0.212546 -0.014705
vn -0.986172 -0.164816 -0.017347
vn -0.985944 -0.166109 -0.017962
vn 0.083309 0.009106 -0.996482
vn 0.083740 0.010124 -0.996436
vn 0.232982 0.011013 -0.972419
vn 0.379408 0.010546 -0.925169
vn 0.997821 0.012525 -0.064773
vn 0.998070 0.001183 -0.062083
vn 0.515713 0.007872 0.856725
vn 0.399770 0.007162 0.916587
vn 0.276283 0.002996 0.961072
vn 0.271824 -0.008526 0.962309
vn 0.000802 -0.999968 -0.007973
vn -0.827415 0.004333 -0.561574
vn -0.978102 0.001188 -0.208125
vn -0.966879 -0.002807 0.255220
vn -0.799255 -0.005689 0.600965
vn -0.822719 0.004394 -0.568431
vn -0.976205 0.001262 -0.216845
vn -0.969396 -0.002726 0.245488
vn -0.805625 -0.005618 0.592399
vn -0.081753 0.996600 0.010244
vn -0.076565 0.997046 0.006071
vn 0.166784 0.826528 -0.537619
vn 0.270348 0.807583 0.524139
vn -0.999692 -0.000441 -0.024805
vn 0.133845 0.990936 0.011442
vn 0.084621 0.996365 0.009846
vn 0.059864 0.998166 0.009037
vn -0.013443 0.999878 0.007913
# 121 normals

g default
usemtl None.003
s 1
f 1/1/1 2/2/1 3/3/1
f 4/2/2 5/1/2 6/4/2
f 7/5/3 8/3/3 9/6/3
f 10/3/4 11/5/4 12/1/4
f 13/7/5 14/8/5 15/9/5
f 16/10/6 17/11/6 18/12/6
f 19/11/7 20/13/7 21/12/7
f 22/14/8 23/15/8 24/16/8
f 25/17/9 26/11/9 27/10/9
f 28/18/10 29/19/10 30/20/10
f 31/18/11 32/20/11 33/21/11
f 34/22/12 35/23/13 36/24/13
f 35/23/13 37/25/14 36/24/13
f 38/26/15 39/27/16 40/28/16
f 39/27/16 41/29/17 40/28/16
f 42/30/18 43/31/18 44/32/18
f 43/31/18 45/33/18 44/32/18
f 46/1/19 47/34/19 48/4/19
f 47/34/19 49/35/20 48/4/19
f 50/36/21 51/34/22 52/5/22
f 51/34/22 53/1/23 52/5/22
f 54/37/24 55/9/25 56/38/25
f 55/9/25 57/8/26 56/38/25
f 58/39/27 59/40/28 60/16/28
f 59/40/28 61/14/29 60/16/28
f 62/41/30 63/42/30 64/43/30
f 65/42/30 66/41/30 67/44/30
f 68/45/31 69/46/31 70/47/31
f 71/46/32 72/45/32 73/48/32
f 74/49/33 75/50/33 76/51/33
f 77/50/34 78/49/34 79/52/34
f 80/48/35 81/51/35 82/46/35
f 83/51/35 84/48/35 85/49/35
f 86/46/36 87/50/36 88/47/36
f 89/50/36 90/46/36 91/51/36
f 92/48/37 93/52/37 94/49/37
f 95/52/37 96/48/37 97/45/37
f 98/53/38 99/54/38 100/55/38
f 101/54/39 102/53/39 103/56/39
f 104/57/40 105/55/40 106/58/40
f 107/55/41 108/57/41 109/53/41
f 110/59/42 111/58/42 112/60/42
f 113/58/43 114/59/43 115/57/43
f 116/61/44 117/57/44 118/61/44
f 119/57/44 120/61/44 121/57/44
f 122/62/45 123/63/45 124/64/45
f 125/63/45 126/62/45 127/65/45
f 128/66/46 129/67/46 130/68/46
f 131/67/47 132/66/47 133/69/47
f 134/69/48 135/70/48 136/67/48
f 137/70/49 138/69/49 139/71/49
f 140/71/50 141/72/50 142/70/50
f 143/68/51 144/73/51 145/66/51
f 146/74/52 147/75/52 148/76/52
f 149/75/53 150/74/53 151/77/53
f 152/78/54 153/76/54 154/79/54
f 155/76/55 156/78/55 157/74/55
f 158/79/56 159/80/56 160/78/56
f 161/77/57 162/81/57 163/75/57
f 164/82/58 165/83/59 166/59/59
f 165/83/59 167/84/60 166/59/59
f 168/85/61 169/86/61 170/87/61
f 169/86/61 171/88/62 170/87/61
f 172/89/63 173/90/63 174/91/63
f 173/90/63 175/92/63 174/91/63
f 176/93/64 177/94/64 178/95/64
f 177/94/64 179/96/64 178/95/64
f 180/94/65 181/93/65 182/96/65
f 181/93/65 183/95/65 182/96/65
f 184/85/66 185/86/62 186/87/62
f 185/86/62 187/88/62 186/87/62
f 188/89/63 189/90/63 190/91/63
f 189/90/63 191/92/63 190/91/63
f 192/97/64 193/94/64 194/98/64
f 193/94/64 195/99/64 194/98/64
f 196/94/65 197/97/65 198/99/65
f 197/97/65 199/98/65 198/99/65
f 200/54/67 201/56/68 202/60/68
f 201/56/68 203/59/69 202/60/68
f 204/100/65 205/84/65 206/101/65
f 205/84/65 207/83/65 206/101/65
f 208/102/70 209/59/71 210/100/71
f 209/59/71 211/84/72 210/100/71
f 212/55/64 213/54/64 214/58/64
f 213/54/64 215/60/64 214/58/64
f 216/101/73 217/83/74 218/53/74
f 217/83/74 219/82/75 218/53/74
f 220/100/76 221/101/77 222/102/77
f 221/101/77 223/53/78 222/102/77
f 224/72/79 225/73/80 226/70/81
f 225/73/80 227/68/82 226/70/81
f 226/70/81 227/68/82 228/67/83
f 229/76/84 230/75/85 231/79/86
f 230/75/85 232/81/87 231/79/86
f 231/79/86 232/81/87 233/80/88
f 234/103/89 235/103/89 236/104/90
f 235/103/89 237/104/91 236/104/90
f 236/104/90 237/104/91 238/105/92
f 237/104/91 239/105/93 238/105/92
f 240/106/94 241/107/95 242/108/96
f 241/107/95 243/109/97 242/108/96
f 242/108/96 243/109/97 244/110/98
f 243/109/97 245/111/99 244/110/98
f 245/111/99 246/109/100 244/110/98
f 244/110/98 246/109/100 247/108/101
f 246/109/100 248/107/102 247/108/101
f 247/108/101 248/107/102 249/106/103
f 250/90/63 251/112/63 252/92/63
f 253/87/62 254/88/62 255/113/62
f 256/90/63 257/112/63 258/92/63
f 259/87/104 260/88/104 261/113/104
f 262/99/105 263/98/105 264/114/106
f 263/98/105 265/115/107 264/114/106
f 264/114/106 265/115/107 266/99/108
f 265/115/107 267/98/108 266/99/108
f 268/96/109 269/95/109 270/116/110
f 269/95/109 271/117/111 270/116/110
f 270/116/110 271/117/111 272/96/112
f 271/117/111 273/95/112 272/96/112
f 274/118/113 275/119/113 276/120/113
f 277/119/114 278/118/114 279/121/114
f 280/122/115 281/118/115 282/120/115
f 283/123/116 284/119/116 285/121/116
f 286/124/117 287/125/117 288/126/117
f 287/125/117 289/127/117 288/126/117
f 290/128/62 291/129/62 292/130/62
f 291/129/62 293/131/62 292/130/62
f 292/130/62 293/131/62 294/132/62
f 295/133/118 296/134/118 297/135/119
f 296/134/118 298/136/120 297/135/119
f 297/135/119 298/136/120 299/137/121
# 131 triangles in group

# 131 triangles total

