# Wavefront OBJ exported by MilkShape 3D

mtllib head.mtl

v 0.176546 0.305351 0.260384
v -0.195000 0.305351 0.260384
v -0.006958 0.347312 0.271985
v 0.226531 0.266053 0.258356
v -0.240904 0.266184 0.256764
v -0.302871 0.156059 0.071371
v -0.301851 0.250393 0.246808
v -0.294660 0.372497 0.333483
v 0.284701 0.373259 0.326107
v 0.288268 0.250643 0.245966
v 0.288446 0.156059 0.071371
v -0.300544 -0.115243 0.044488
v 0.296881 -0.115243 0.044488
v -0.122300 -0.202191 0.024876
v -0.307880 -0.293799 0.117929
v -0.293547 -0.284655 -0.078750
v -0.255171 -0.280911 -0.121341
v -0.150321 -0.271644 -0.154318
v 0.108514 -0.202191 0.024876
v 0.137903 -0.273500 -0.150490
v 0.251380 -0.286983 -0.121335
v 0.289718 -0.284473 -0.078498
v 0.306969 -0.293742 0.117212
# 23 vertices

vt 0.137506 0.068422
vt 0.513317 0.000245
vt 0.898421 0.068422
vt 0.035138 0.132274
vt 0.992432 0.132059
vt 1.119339 0.310990
vt 1.117249 0.157717
vt 1.102522 -0.040676
vt -0.091297 0.157312
vt -0.083992 -0.041914
vt -0.091662 0.310990
vt 1.114572 0.751799
vt -0.108936 0.751798
vt 0.749534 0.893071
vt 1.129596 1.041914
vt 1.100243 1.027058
vt 1.021651 1.020974
vt 0.806921 1.005917
vt 0.276835 0.893071
vt 0.216647 1.008933
vt -0.015750 1.030840
vt -0.094266 1.026762
vt -0.129596 1.041823
# 23 texture coordinates

vn 0.000000 -0.159956 0.987124
vn 0.000000 -0.266474 0.963842
vn -0.001144 -0.135975 0.990712
vn -0.017820 -0.604353 0.796517
vn 0.043711 -0.651258 0.757596
vn 0.040227 -0.734653 0.677250
vn 0.085603 -0.746456 0.659906
vn 0.017015 -0.579421 0.814851
vn -0.047236 -0.733984 0.677522
vn 0.031661 -0.546181 0.837068
vn -0.034688 -0.544929 0.837765
vn 0.070346 -0.015715 0.997399
vn -0.066414 -0.048306 0.996622
vn 0.223607 -0.692112 0.686280
vn 0.565414 -0.431229 0.703099
vn 0.382266 -0.918694 0.099370
vn 0.253790 -0.928955 0.269504
vn 0.058441 -0.932301 0.356930
vn -0.201764 -0.794349 0.572975
vn -0.104341 -0.927267 0.359568
vn -0.227192 -0.922235 0.312836
vn -0.341554 -0.929236 0.140929
vn -0.538366 -0.445647 0.715235
# 23 normals

g default
usemtl Tex_0347_0.dds
s 1
f 1/1/1 3/2/2 2/3/3
f 2/3/3 4/4/4 1/1/1
f 4/4/4 2/3/3 5/5/5
f 6/6/6 4/4/4 5/5/5
f 7/7/7 6/6/6 5/5/5
f 7/7/7 5/5/5 8/8/8
f 10/9/9 9/10/10 4/4/4
f 11/11/11 10/9/9 4/4/4
f 11/11/11 4/4/4 6/6/6
f 11/11/11 6/6/6 12/12/12
f 13/13/13 11/11/11 12/12/12
f 14/14/14 13/13/13 12/12/12
f 14/14/14 12/12/12 15/15/15
f 14/14/14 15/15/15 16/16/16
f 14/14/14 16/16/16 17/17/17
f 14/14/14 17/17/17 18/18/18
f 19/19/19 14/14/14 18/18/18
f 19/19/19 18/18/18 20/20/20
f 19/19/19 20/20/20 21/21/21
f 19/19/19 21/21/21 22/22/22
f 19/19/19 22/22/22 23/23/23
f 19/19/19 23/23/23 13/13/13
f 14/14/14 19/19/19 13/13/13
# 23 triangles in group

# 23 triangles total

