# Wavefront OBJ exported by MilkShape 3D

mtllib mask.mtl

v 0.086156 -0.176302 -0.158397
v -0.062082 -0.244625 -0.166708
v 0.053034 -0.247026 -0.168516
v 0.041280 -0.138186 -0.146608
v -0.100736 -0.187919 -0.160409
v -0.043131 -0.135557 -0.148547
v -0.028177 -0.113392 -0.239601
v -0.080212 -0.156991 -0.237713
v -0.052374 -0.228312 -0.236211
v 0.042589 -0.228379 -0.236471
v 0.079712 -0.159697 -0.238261
v 0.033460 -0.114214 -0.240659
v -0.307880 -0.291927 0.117929
v -0.293547 -0.282783 -0.078750
v -0.300544 -0.113371 0.044488
v -0.203383 0.016620 -0.222165
v -0.255171 -0.279039 -0.121341
v -0.167771 0.020277 -0.164137
v -0.038722 0.018481 -0.215159
v -0.150321 -0.269772 -0.154318
v -0.301851 0.252265 0.246808
v -0.302871 0.157931 0.071371
v -0.282760 0.207943 0.020306
v -0.217472 0.205866 -0.116666
v -0.242197 0.315235 0.010987
v -0.294660 0.374369 0.333483
v -0.205019 0.192764 -0.077573
v -0.231030 0.286179 0.033217
v -0.294660 0.374369 0.333483
v -0.246853 0.286152 0.192466
v -0.240904 0.268056 0.256764
v -0.195000 0.307223 0.260384
v -0.118779 0.262605 -0.082866
v -0.163120 0.142432 -0.135965
v -0.182991 0.107751 -0.115333
v -0.120713 0.033873 -0.163442
v -0.037695 0.108607 -0.199518
v 0.030960 0.108701 -0.199518
v 0.013709 0.274566 -0.080431
v 0.015597 0.292609 -0.103509
v 0.014019 0.349382 0.035398
v 0.119275 0.281109 -0.093955
v 0.029121 0.125397 -0.234583
v 0.118025 0.262359 -0.084172
v -0.033730 0.127339 -0.233266
v -0.122465 0.281229 -0.093377
v -0.019477 0.288955 -0.097273
v -0.018837 0.274969 -0.078774
v -0.006958 0.349184 0.271985
v 0.176546 0.307223 0.260384
v 0.157505 0.321421 0.033321
v 0.243190 0.286153 0.192467
v 0.226531 0.267925 0.258356
v 0.284701 0.375131 0.326107
v -0.017681 0.349382 0.035398
v -0.162233 0.325513 0.018419
v 0.201356 0.192764 -0.077573
v 0.227367 0.286180 0.033217
v 0.238534 0.315235 0.010987
v 0.213809 0.205866 -0.116666
v 0.167625 0.020136 -0.161952
v 0.208467 0.016809 -0.224611
v 0.279098 0.207943 0.020307
v 0.284701 0.375131 0.326107
v 0.288268 0.252515 0.245966
v 0.288446 0.157931 0.071371
v 0.296881 -0.113371 0.044488
v 0.306969 -0.291870 0.117212
v 0.289718 -0.282601 -0.078498
v 0.251380 -0.285111 -0.121335
v 0.036818 0.019195 -0.215396
v 0.137903 -0.271628 -0.150490
v 0.151093 -0.262954 -0.235840
v -0.158025 -0.259253 -0.235072
v -0.038165 0.024205 -0.238807
v 0.034646 0.023104 -0.240435
v 0.113978 0.033967 -0.163442
v 0.176255 0.107846 -0.115332
v 0.156385 0.142527 -0.135965
v 0.149749 0.133253 -0.124046
v 0.032299 0.105122 -0.184305
v 0.111925 0.036888 -0.152571
v 0.169402 0.108156 -0.114542
v -0.182991 0.107751 -0.115333
v -0.176137 0.108062 -0.114542
v -0.163120 0.142432 -0.135965
v -0.156484 0.133158 -0.124046
v -0.037695 0.108607 -0.199518
v -0.039034 0.105027 -0.184305
v -0.120713 0.033873 -0.163442
v -0.118660 0.036794 -0.152571
# 91 vertices

vt 0.545888 0.776634
vt 0.569248 0.876219
vt 0.420397 0.873453
vt 0.518674 0.660619
vt 0.437460 0.798751
vt 0.469593 0.658070
vt 0.440810 0.795071
vt 0.468031 0.728893
vt 0.391814 0.897493
vt 0.590168 0.898126
vt 0.549508 0.802818
vt 0.508883 0.726663
vt 0.102989 0.952227
vt 0.068862 0.963599
vt 0.086330 0.741520
vt 0.283619 0.580435
vt 0.229848 0.967760
vt 0.320596 0.575644
vt 0.454587 0.577996
vt 0.338713 0.955620
vt 0.080538 0.435609
vt 0.071015 0.318960
vt 0.133045 0.365276
vt 0.246944 0.331320
vt 0.175035 0.238021
vt 0.021537 0.141534
vt 0.281921 0.349679
vt 0.254914 0.227301
vt 0.091761 0.054146
vt 0.238484 0.096256
vt 0.231097 0.071899
vt 0.297911 0.068652
vt 0.371464 0.258184
vt 0.346687 0.397060
vt 0.310478 0.431043
vt 0.349510 0.549702
vt 0.448855 0.497066
vt 0.528733 0.494898
vt 0.509027 0.242514
vt 0.520563 0.223247
vt 0.515732 0.144503
vt 0.615444 0.233943
vt 0.536969 0.427107
vt 0.617338 0.258507
vt 0.441971 0.429922
vt 0.380404 0.233786
vt 0.461802 0.219295
vt 0.475235 0.241987
vt 0.493156 0.013682
vt 0.683689 0.068652
vt 0.635986 0.168025
vt 0.747298 0.096255
vt 0.754740 0.067702
vt 0.928963 0.059540
vt 0.470050 0.144503
vt 0.348690 0.162663
vt 0.730868 0.227301
vt 0.703861 0.349679
vt 0.826451 0.244623
vt 0.749359 0.334868
vt 0.668838 0.575829
vt 0.711245 0.580187
vt 0.859239 0.363909
vt 0.980035 0.146927
vt 0.921610 0.328251
vt 0.905251 0.446364
vt 0.892327 0.746069
vt 0.915341 0.972943
vt 0.875986 0.961162
vt 0.755801 0.975715
vt 0.533021 0.577062
vt 0.637978 0.958052
vt 0.621170 0.936805
vt 0.361193 0.932297
vt 0.461999 0.586948
vt 0.523234 0.588290
vt 0.636272 0.549702
vt 0.670799 0.430850
vt 0.639095 0.397060
vt 0.635914 0.411450
vt 0.546631 0.493462
vt 0.631954 0.533044
vt 0.664002 0.433539
vt 0.528733 0.497066
# 84 texture coordinates

vn -0.821587 0.163279 -0.546200
vn -0.333968 0.937748 -0.095364
vn 0.247627 0.613234 -0.750084
vn -0.329662 -0.451343 -0.829224
vn 0.843421 0.166995 -0.510640
vn 0.337928 -0.838008 -0.428424
vn 0.883336 -0.463247 0.071548
vn 0.331945 -0.927616 -0.171291
vn 0.491516 0.810851 0.317700
vn -0.670887 0.695316 0.257771
vn -0.913855 -0.405354 -0.023599
vn -0.260615 -0.941031 -0.215733
vn -0.935274 0.023769 -0.353126
vn -0.997329 0.011298 -0.072155
vn -0.965026 0.055852 -0.256134
vn -0.576292 0.087332 -0.812564
vn -0.183511 -0.166554 -0.968805
vn 0.488719 0.379694 -0.785485
vn -0.496575 0.447988 -0.743451
vn -0.523736 -0.724718 -0.447756
vn -0.960442 0.141038 -0.240123
vn -0.973515 0.194523 -0.120118
vn -0.941728 0.178693 -0.284985
vn 0.362564 0.614261 -0.700879
vn 0.458589 0.814076 -0.356338
vn -0.958764 0.234258 -0.160918
vn 0.410766 0.604684 -0.682370
vn 0.679720 0.721641 -0.131202
vn 0.915050 0.397590 0.067866
vn 0.338343 0.938569 0.067913
vn 0.216490 0.944815 0.245878
vn -0.542785 0.839870 0.001838
vn -0.781808 0.354911 -0.512655
vn -0.528815 0.363986 -0.766726
vn -0.078014 0.428209 -0.900306
vn -0.299404 0.496882 -0.814534
vn 0.047877 0.311750 -0.948957
vn 0.210549 0.025787 -0.977243
vn -0.696941 0.537094 -0.475188
vn -0.811565 0.442073 -0.382012
vn -0.295312 0.937899 -0.182033
vn 0.625890 0.550371 -0.552588
vn 0.594739 -0.034885 -0.803162
vn 0.778828 0.363376 -0.511259
vn -0.605581 -0.051930 -0.794087
vn -0.611514 0.534366 -0.583527
vn 0.836546 0.410861 -0.362469
vn 0.833702 0.445629 -0.326122
vn 0.005870 0.995145 -0.098240
vn 0.535150 0.843717 0.041903
vn 0.837199 0.493153 -0.236426
vn -0.348737 0.935003 0.064439
vn -0.206477 0.955198 0.212048
vn -0.913438 0.406128 0.026266
vn 0.339992 0.920070 -0.194620
vn -0.833226 0.476912 -0.279800
vn -0.692243 0.708963 -0.134801
vn -0.319252 0.590000 -0.741605
vn -0.460872 0.811923 -0.358300
vn -0.361010 0.611850 -0.703784
vn -0.404254 0.379987 -0.831979
vn 0.586241 0.090734 -0.805040
vn 0.959711 0.159516 -0.231322
vn 0.971491 0.200074 -0.127185
vn 0.994053 0.091826 -0.058532
vn 0.991486 0.082264 -0.100937
vn 0.979295 0.059036 -0.193638
vn 0.996006 0.020925 -0.086803
vn 0.938408 0.014182 -0.345239
vn 0.172402 -0.178424 -0.968732
vn 0.521451 0.601718 -0.605000
vn 0.697117 -0.470268 -0.541180
vn 0.824300 -0.565182 -0.033139
vn -0.992015 -0.118235 0.043886
vn -0.354759 0.917511 0.179775
vn 0.567291 0.819742 0.078766
vn 0.332579 0.776209 -0.535622
vn -0.056473 0.358191 -0.931939
vn 0.313273 -0.217084 -0.924518
vn 0.242563 -0.696334 -0.675487
vn 0.770929 0.220451 -0.597553
vn 0.140154 0.694756 -0.705458
vn 0.069001 -0.120026 -0.990370
vn -0.068955 -0.120037 -0.990372
vn 0.360951 0.302612 -0.882123
vn 0.042523 -0.715438 -0.697381
vn -0.242571 -0.696322 -0.675497
vn -0.788712 -0.540650 -0.292627
vn -0.770927 0.220461 -0.597553
vn -0.290779 0.950315 -0.111121
vn -0.140143 0.694764 -0.705452
# 91 normals

g default
usemtl Tex_0357_0.dds
s 1
f 1/1/1 3/2/2 2/3/3
f 2/3/3 4/4/4 1/1/1
f 4/4/4 2/3/3 5/5/5
f 6/6/6 4/4/4 5/5/5
f 8/7/7 7/8/8 6/6/6
f 8/7/7 6/6/6 5/5/5
f 9/9/9 8/7/7 5/5/5
f 9/9/9 5/5/5 2/3/3
f 9/9/9 2/3/3 3/2/2
f 10/10/10 9/9/9 3/2/2
f 10/10/10 3/2/2 1/1/1
f 11/11/11 10/10/10 1/1/1
f 4/4/4 11/11/11 1/1/1
f 12/12/12 11/11/11 4/4/4
f 12/12/12 4/4/4 6/6/6
f 7/8/8 12/12/12 6/6/6
f 14/13/13 13/14/14 15/15/15
f 14/13/13 15/15/15 16/16/16
f 17/17/17 14/13/13 16/16/16
f 17/17/17 16/16/16 18/18/18
f 17/17/17 18/18/18 19/19/19
f 20/20/20 17/17/17 19/19/19
f 22/21/21 21/22/22 23/23/23
f 15/15/15 22/21/21 23/23/23
f 16/16/16 15/15/15 23/23/23
f 24/24/24 16/16/16 23/23/23
f 25/25/25 24/24/24 23/23/23
f 26/26/26 25/25/25 23/23/23
f 26/26/26 23/23/23 21/22/22
f 18/18/18 16/16/16 24/24/24
f 27/27/27 18/18/18 24/24/24
f 27/27/27 24/24/24 25/25/25
f 28/28/28 27/27/27 25/25/25
f 28/28/28 25/25/25 29/29/29
f 30/30/30 28/28/28 29/29/29
f 30/30/30 29/29/29 31/31/31
f 30/30/30 31/31/31 32/32/32
f 30/30/30 32/32/32 33/33/33
f 28/28/28 30/30/30 33/33/33
f 28/28/28 33/33/33 27/27/27
f 27/27/27 34/34/34 35/35/35
f 18/18/18 27/27/27 35/35/35
f 18/18/18 35/35/35 36/36/36
f 19/19/19 18/18/18 36/36/36
f 19/19/19 36/36/36 37/37/37
f 38/38/38 19/19/19 37/37/37
f 38/38/38 37/37/37 39/39/39
f 40/40/40 38/38/38 39/39/39
f 40/40/40 39/39/39 41/41/41
f 40/40/40 41/41/41 42/42/42
f 43/43/43 40/40/40 42/42/42
f 43/43/43 42/42/42 44/44/44
f 43/43/43 44/44/44 38/38/38
f 40/40/40 43/43/43 38/38/38
f 34/34/34 27/27/27 33/33/33
f 37/37/37 34/34/34 33/33/33
f 45/45/45 37/37/37 33/33/33
f 45/45/45 33/33/33 46/46/46
f 45/45/45 46/46/46 47/47/47
f 37/37/37 45/45/45 47/47/47
f 37/37/37 47/47/47 48/48/48
f 39/39/39 37/37/37 48/48/48
f 39/39/39 48/48/48 49/49/49
f 41/41/41 39/39/39 49/49/49
f 41/41/41 49/49/49 50/50/50
f 41/41/41 50/50/50 51/51/51
f 42/42/42 41/41/41 51/51/51
f 44/44/44 42/42/42 51/51/51
f 44/44/44 51/51/51 50/50/50
f 52/52/52 44/44/44 50/50/50
f 52/52/52 50/50/50 53/53/53
f 54/54/54 52/52/52 53/53/53
f 49/49/49 48/48/48 55/55/55
f 32/32/32 49/49/49 55/55/55
f 32/32/32 55/55/55 56/56/56
f 33/33/33 32/32/32 56/56/56
f 46/46/46 33/33/33 56/56/56
f 46/46/46 56/56/56 55/55/55
f 47/47/47 46/46/46 55/55/55
f 47/47/47 55/55/55 48/48/48
f 58/57/57 57/58/58 44/44/44
f 58/57/57 44/44/44 52/52/52
f 58/57/57 52/52/52 54/54/54
f 58/57/57 54/54/54 59/59/59
f 57/58/58 58/57/57 59/59/59
f 57/58/58 59/59/59 60/60/60
f 61/61/61 57/58/58 60/60/60
f 62/62/62 61/61/61 60/60/60
f 63/63/63 62/62/62 60/60/60
f 63/63/63 60/60/60 59/59/59
f 63/63/63 59/59/59 64/64/64
f 63/63/63 64/64/64 65/65/65
f 63/63/63 65/65/65 66/66/66
f 63/63/63 66/66/66 67/67/67
f 62/62/62 63/63/63 67/67/67
f 67/67/67 68/68/68 69/69/69
f 62/62/62 67/67/67 69/69/69
f 62/62/62 69/69/69 70/70/70
f 61/61/61 62/62/62 70/70/70
f 71/71/71 61/61/61 70/70/70
f 71/71/71 70/70/70 72/72/72
f 73/73/73 71/71/71 72/72/72
f 73/73/73 72/72/72 20/20/20
f 74/74/74 73/73/73 20/20/20
f 74/74/74 20/20/20 19/19/19
f 75/75/75 74/74/74 19/19/19
f 75/75/75 19/19/19 71/71/71
f 76/76/76 75/75/75 71/71/71
f 76/76/76 71/71/71 73/73/73
f 71/71/71 19/19/19 38/38/38
f 71/71/71 38/38/38 77/77/77
f 61/61/61 71/71/71 77/77/77
f 61/61/61 77/77/77 78/78/78
f 57/58/58 61/61/61 78/78/78
f 57/58/58 78/78/78 79/79/79
f 44/44/44 57/58/58 79/79/79
f 38/38/38 44/44/44 79/79/79
f 38/38/38 79/79/79 80/80/80
f 38/38/38 80/80/80 81/81/81
f 77/77/77 38/38/38 81/81/81
f 77/77/77 81/81/81 82/82/82
f 78/78/78 77/77/77 82/82/82
f 78/78/78 82/82/82 83/83/83
f 79/79/79 78/78/78 83/83/83
f 80/80/80 79/79/79 83/83/83
f 81/81/81 80/80/80 83/83/83
f 81/81/81 83/83/83 82/82/82
f 85/83/84 84/78/85 86/79/86
f 87/80/87 85/83/84 86/79/86
f 87/80/87 86/79/86 88/84/88
f 89/81/89 87/80/87 88/84/88
f 89/81/89 88/84/88 90/77/90
f 91/82/91 89/81/89 90/77/90
f 91/82/91 90/77/90 84/78/85
f 91/82/91 84/78/85 85/83/84
f 89/81/89 91/82/91 85/83/84
f 89/81/89 85/83/84 87/80/87
# 137 triangles in group

# 137 triangles total

