# Wavefront OBJ exported by MilkShape 3D

mtllib torso.mtl

v -0.045358 0.024933 -0.047143
v -0.036832 0.024933 -0.086062
v -0.045358 0.084810 -0.047143
v -0.036832 0.084810 -0.086062
v 0.037299 0.024933 -0.086062
v 0.037299 0.084810 -0.086062
v 0.048048 0.024933 -0.047143
v 0.048048 0.084810 -0.047143
v -0.045358 0.024933 -0.047143
v 0.048048 0.024933 -0.047143
v -0.045358 0.084810 -0.047143
v 0.048048 0.084810 -0.047143
v -0.036832 0.084810 -0.086062
v -0.045358 0.084810 -0.047143
v 0.037299 0.084810 -0.086062
v 0.048048 0.084810 -0.047143
v -0.019774 -0.084810 0.028708
v -0.019774 -0.033336 0.028708
v -0.028212 -0.084810 -0.011790
v -0.028212 -0.033336 -0.011790
v -0.019774 -0.084810 -0.052288
v -0.019774 -0.033336 -0.052288
v 0.020967 -0.084810 -0.052288
v 0.020967 -0.033336 -0.052288
v 0.029405 -0.084810 -0.011790
v 0.029405 -0.033336 -0.011790
v 0.020967 -0.084810 0.028708
v 0.020967 -0.033336 0.028708
v -0.019774 -0.084810 -0.052288
v 0.020967 -0.084810 -0.052288
v -0.028212 -0.084810 -0.011790
v 0.029405 -0.084810 -0.011790
v -0.019774 -0.084810 0.028708
v 0.020967 -0.084810 0.028708
v -0.128202 -0.033307 0.017395
v -0.128202 0.025107 0.017395
v -0.153595 -0.033309 0.002853
v -0.153595 0.025104 0.002853
v -0.153595 -0.033309 -0.026493
v -0.153595 0.025104 -0.026493
v -0.128202 -0.033307 -0.040953
v -0.128202 0.025107 -0.040953
v -0.080660 -0.033386 -0.040991
v -0.080606 0.025021 -0.040991
v -0.076493 -0.033465 -0.071607
v -0.076493 0.024937 -0.071607
v -0.000693 -0.033465 -0.094773
v -0.000693 0.024937 -0.094773
v 0.076218 -0.033465 -0.071607
v 0.076218 0.024937 -0.071607
v 0.081404 -0.033387 -0.040990
v 0.081465 0.025021 -0.040990
v 0.128165 -0.033309 -0.040953
v 0.128165 0.025104 -0.040953
v 0.153595 -0.033309 -0.026564
v 0.153595 0.025104 -0.026564
v 0.153595 -0.033309 0.002814
v 0.153595 0.025104 0.002814
v 0.128165 -0.033309 0.017395
v 0.128165 0.025104 0.017395
v 0.083760 -0.033306 0.017270
v 0.083954 0.025103 0.017270
v 0.068705 -0.033303 0.038581
v 0.068705 0.025101 0.038581
v 0.082465 -0.021677 0.048298
v 0.082465 0.013475 0.048298
v 0.063292 -0.021677 0.072801
v 0.063292 0.013475 0.072801
v 0.001029 -0.021677 0.094773
v 0.001029 0.013475 0.094773
v -0.060542 -0.021677 0.073588
v -0.060542 0.013475 0.073588
v -0.080133 -0.021677 0.048715
v -0.080133 0.013475 0.048715
v -0.066406 -0.033303 0.038951
v -0.066406 0.025101 0.038951
v -0.081842 -0.033305 0.017270
v -0.081861 0.025104 0.017270
v 0.053567 -0.033303 0.060015
v 0.000964 -0.033303 0.078895
v -0.050897 -0.033303 0.060756
v -0.050897 0.025101 0.060756
v 0.000964 0.025101 0.078895
v 0.053567 0.025101 0.060015
# 84 vertices

vt 0.900424 -0.107590
vt 0.900424 -0.130778
vt 0.880475 -0.107989
vt 0.880475 -0.131177
vt 0.885270 -0.110212
vt 0.885270 -0.133400
vt 0.906465 -0.110391
vt 0.906465 -0.133579
vt 0.429598 -0.288964
vt 0.696036 -0.288964
vt 0.046591 -0.771561
vt 0.021821 -0.956870
vt 0.261986 -0.771561
vt 0.293218 -0.956870
vt 0.900035 -0.093611
vt 0.900035 -0.128338
vt 0.912676 -0.093535
vt 0.912676 -0.128262
vt 0.925040 -0.093645
vt 0.925040 -0.128372
vt 0.260896 -0.051877
vt 0.260897 -0.237503
vt 0.150302 -0.013433
vt 0.150302 -0.275947
vt 0.039708 -0.051877
vt 0.039708 -0.237503
vt 0.193284 -0.600245
vt 0.137309 -0.534167
vt 0.137309 -0.384898
vt 0.193284 -0.318820
vt 0.328898 -0.318638
vt 0.340785 -0.170970
vt 0.557002 -0.059236
vt 0.776391 -0.170970
vt 0.791184 -0.318644
vt 0.924568 -0.318820
vt 0.981970 -0.388589
vt 0.981970 -0.530476
vt 0.924568 -0.600246
vt 0.797902 -0.599645
vt 0.754960 -0.702428
vt 0.794209 -0.749299
vt 0.739520 -0.867482
vt 0.561914 -0.973455
vt 0.386284 -0.871278
vt 0.330400 -0.751306
vt 0.369558 -0.704215
vt 0.325527 -0.599645
vt 0.711779 -0.805810
vt 0.561730 -0.896872
vt 0.413795 -0.809387
# 51 texture coordinates

vn -0.976835 0.000000 -0.213995
vn -0.807330 0.000000 -0.590100
vn -0.403665 0.000000 -0.914907
vn 0.391405 0.000000 -0.920219
vn 0.782809 0.000000 -0.622262
vn 0.963912 0.000000 -0.266222
vn 0.000000 0.000000 1.000000
vn 0.000000 1.000000 0.000000
vn -0.405942 0.000000 0.913899
vn -0.811883 0.000000 0.583820
vn -0.997597 0.000000 0.069285
vn -0.997597 0.000000 -0.069285
vn -0.811883 0.000000 -0.583820
vn -0.405942 0.000000 -0.913899
vn 0.405942 0.000000 -0.913899
vn 0.811883 0.000000 -0.583820
vn 0.997597 0.000000 -0.069285
vn 0.997597 0.000000 0.069285
vn 0.811883 0.000000 0.583820
vn 0.405942 0.000000 0.913899
vn 0.000000 -1.000000 0.000000
vn -0.117574 -0.717844 0.686204
vn -0.236836 0.718071 0.654433
vn -0.705477 -0.353830 0.614090
vn -0.753308 0.603324 0.261775
vn -0.752909 -0.603611 -0.262264
vn -0.704389 0.354000 -0.615240
vn -0.237321 -0.717688 -0.654678
vn -0.118378 0.717630 -0.686290
vn -0.179862 -0.905194 -0.385064
vn -0.307324 0.930747 -0.198148
vn -0.821471 -0.361006 -0.441429
vn -0.568786 0.360784 -0.739133
vn -0.071226 -0.721553 -0.688686
vn 0.080817 0.569157 -0.818248
vn 0.560590 -0.358900 -0.746277
vn 0.688183 0.608611 -0.394963
vn 0.356292 -0.903033 -0.239975
vn 0.211559 0.858515 -0.467114
vn 0.118550 -0.717454 -0.686444
vn 0.235290 0.717410 -0.655714
vn 0.703102 -0.354222 -0.616583
vn 0.752537 0.603851 -0.262776
vn 0.753353 -0.603306 0.261688
vn 0.705734 0.353782 0.613822
vn 0.237686 -0.717645 0.654592
vn 0.117670 0.717869 0.686162
vn 0.142595 -0.879586 0.453866
vn 0.286148 0.879772 0.379632
vn 0.553457 -0.812514 0.183046
vn 0.529851 0.833280 -0.157809
vn 0.914175 -0.314818 -0.255293
vn 0.843249 0.443425 0.303819
vn 0.535083 -0.526646 0.660554
vn 0.446605 0.457039 0.769194
vn 0.028085 -0.461756 0.886562
vn -0.099335 0.459449 0.882632
vn -0.484011 -0.367069 0.794351
vn -0.583852 0.464757 0.665671
vn -0.842321 -0.443265 0.306614
vn -0.915028 0.314790 -0.252253
vn -0.530834 -0.832822 -0.156918
vn -0.553584 0.812138 0.184324
vn -0.337009 -0.828160 0.447856
vn -0.167600 0.828802 0.533852
vn 0.184969 -0.952178 0.243195
vn 0.054135 -0.889122 0.454457
vn -0.201596 -0.938598 0.279987
vn -0.157769 0.951100 0.265550
vn 0.054135 0.889122 0.454457
vn 0.240650 0.933104 0.267217
# 71 normals

g default
usemtl Tex_0064_0.dds.001
s 1
f 1/1/1 3/2/1 2/3/2
f 3/2/1 4/4/3 2/3/2
f 2/3/2 4/4/3 5/5/4
f 4/4/3 6/6/5 5/5/4
f 5/5/4 6/6/5 7/7/6
f 6/6/5 8/8/6 7/7/6
f 9/9/7 10/10/7 11/9/7
f 10/10/7 12/10/7 11/9/7
f 13/11/8 14/12/8 15/13/8
f 14/12/8 16/14/8 15/13/8
f 17/15/9 18/16/10 19/17/11
f 18/16/10 20/18/12 19/17/11
f 19/17/11 20/18/12 21/19/13
f 20/18/12 22/20/14 21/19/13
f 21/19/13 22/20/14 23/19/15
f 22/20/14 24/20/16 23/19/15
f 23/19/15 24/20/16 25/17/17
f 24/20/16 26/18/18 25/17/17
f 25/17/17 26/18/18 27/15/19
f 26/18/18 28/16/20 27/15/19
f 27/15/19 28/16/20 17/15/9
f 28/16/20 18/16/10 17/15/9
f 29/21/21 30/22/21 31/23/21
f 30/22/21 32/24/21 31/23/21
f 31/23/21 32/24/21 33/25/21
f 32/24/21 34/26/21 33/25/21
f 35/27/22 36/27/23 37/28/24
f 36/27/23 38/28/25 37/28/24
f 37/28/24 38/28/25 39/29/26
f 38/28/25 40/29/27 39/29/26
f 39/29/26 40/29/27 41/30/28
f 40/29/27 42/30/29 41/30/28
f 41/30/28 42/30/29 43/31/30
f 42/30/29 44/31/31 43/31/30
f 43/31/30 44/31/31 45/32/32
f 44/31/31 46/32/33 45/32/32
f 45/32/32 46/32/33 47/33/34
f 46/32/33 48/33/35 47/33/34
f 47/33/34 48/33/35 49/34/36
f 48/33/35 50/34/37 49/34/36
f 49/34/36 50/34/37 51/35/38
f 50/34/37 52/35/39 51/35/38
f 51/35/38 52/35/39 53/36/40
f 52/35/39 54/36/41 53/36/40
f 53/36/40 54/36/41 55/37/42
f 54/36/41 56/37/43 55/37/42
f 55/37/42 56/37/43 57/38/44
f 56/37/43 58/38/45 57/38/44
f 57/38/44 58/38/45 59/39/46
f 58/38/45 60/39/47 59/39/46
f 59/39/46 60/39/47 61/40/48
f 60/39/47 62/40/49 61/40/48
f 61/40/48 62/40/49 63/41/50
f 62/40/49 64/41/51 63/41/50
f 63/41/50 64/41/51 65/42/52
f 64/41/51 66/42/53 65/42/52
f 65/42/52 66/42/53 67/43/54
f 66/42/53 68/43/55 67/43/54
f 67/43/54 68/43/55 69/44/56
f 68/43/55 70/44/57 69/44/56
f 69/44/56 70/44/57 71/45/58
f 70/44/57 72/45/59 71/45/58
f 71/45/58 72/45/59 73/46/60
f 72/45/59 74/46/61 73/46/60
f 73/46/60 74/46/61 75/47/62
f 74/46/61 76/47/63 75/47/62
f 75/47/62 76/47/63 77/48/64
f 76/47/63 78/48/65 77/48/64
f 77/48/64 78/48/65 35/27/22
f 78/48/65 36/27/23 35/27/22
f 40/29/27 38/28/25 42/30/29
f 38/28/25 36/27/23 42/30/29
f 42/30/29 36/27/23 44/31/31
f 36/27/23 78/48/65 44/31/31
f 37/28/24 39/29/26 35/27/22
f 39/29/26 41/30/28 35/27/22
f 35/27/22 41/30/28 77/48/64
f 41/30/28 43/31/30 77/48/64
f 77/48/64 43/31/30 61/40/48
f 43/31/30 51/35/38 61/40/48
f 61/40/48 51/35/38 59/39/46
f 51/35/38 53/36/40 59/39/46
f 59/39/46 53/36/40 57/38/44
f 53/36/40 55/37/42 57/38/44
f 58/38/45 56/37/43 60/39/47
f 56/37/43 54/36/41 60/39/47
f 60/39/47 54/36/41 62/40/49
f 54/36/41 52/35/39 62/40/49
f 79/49/66 80/50/67 81/51/68
f 73/46/60 75/47/62 81/51/68
f 75/47/62 63/41/50 81/51/68
f 81/51/68 63/41/50 79/49/66
f 63/41/50 67/43/54 79/49/66
f 79/49/66 67/43/54 80/50/67
f 67/43/54 69/44/56 80/50/67
f 80/50/67 69/44/56 81/51/68
f 69/44/56 71/45/58 81/51/68
f 81/51/68 71/45/58 73/46/60
f 76/47/63 72/45/59 82/51/69
f 72/45/59 70/44/57 82/51/69
f 82/51/69 70/44/57 83/50/70
f 72/45/59 76/47/63 74/46/61
f 70/44/57 68/43/55 83/50/70
f 68/43/55 84/49/71 83/50/70
f 83/50/70 84/49/71 82/51/69
f 84/49/71 64/41/51 82/51/69
f 82/51/69 64/41/51 76/47/63
f 64/41/51 62/40/49 76/47/63
f 76/47/63 62/40/49 78/48/65
f 62/40/49 52/35/39 78/48/65
f 78/48/65 52/35/39 44/31/31
f 52/35/39 50/34/37 44/31/31
f 44/31/31 50/34/37 48/33/35
f 64/41/51 84/49/71 66/42/53
f 84/49/71 68/43/55 66/42/53
f 67/43/54 63/41/50 65/42/52
f 44/31/31 48/33/35 46/32/33
f 49/34/36 51/35/38 47/33/34
f 51/35/38 43/31/30 47/33/34
f 47/33/34 43/31/30 45/32/32
f 63/41/50 75/47/62 61/40/48
f 75/47/62 77/48/64 61/40/48
# 122 triangles in group

# 122 triangles total

